<svg xmlns="http://www.w3.org/2000/svg" xmlns:xlink="http://www.w3.org/1999/xlink" contentStyleType="text/css" data-diagram-type="CLASS" height="1018px" preserveAspectRatio="none" style="width:579px;height:1018px;background:#FFFFFF;" version="1.1" viewBox="0 0 579 1018" width="579px" zoomAndPan="magnify"><defs/><g><!--class Persona--><g class="entity" data-entity="Persona" data-source-line="3" data-uid="ent0002" id="entity_Persona"><rect fill="#F1F1F1" height="145.7813" rx="2.5" ry="2.5" style="stroke:#181818;stroke-width:0.5;" width="131.8682" x="223.6" y="7"/><ellipse cx="258.2853" cy="23" fill="#A9DCDF" rx="11" ry="11" style="stroke:#181818;stroke-width:1;"/><path d="M258.3947,18.3438 L257.2384,23.4219 L259.5666,23.4219 L258.3947,18.3438 Z M256.9103,16.1094 L259.8947,16.1094 L263.2541,28.5 L260.8009,28.5 L260.0353,25.4375 L256.7541,25.4375 L256.0041,28.5 L253.5666,28.5 L256.9103,16.1094 Z " fill="#000000"/><text fill="#000000" font-family="sans-serif" font-size="14" font-style="italic" lengthAdjust="spacing" textLength="56.123" x="276.6598" y="27.8467">Persona</text><line style="stroke:#181818;stroke-width:0.5;" x1="224.6" x2="354.4682" y1="39" y2="39"/><text fill="#000000" font-family="sans-serif" font-size="14" lengthAdjust="spacing" textLength="110.332" x="229.6" y="55.9951">-nombre: String</text><text fill="#000000" font-family="sans-serif" font-size="14" lengthAdjust="spacing" textLength="67.4365" x="229.6" y="72.292">-edad: int</text><text fill="#000000" font-family="sans-serif" font-size="14" lengthAdjust="spacing" textLength="113.5381" x="229.6" y="88.5889">-telefono: String</text><text fill="#000000" font-family="sans-serif" font-size="14" lengthAdjust="spacing" textLength="111.2002" x="229.6" y="104.8857">-apellido: String</text><text fill="#000000" font-family="sans-serif" font-size="14" lengthAdjust="spacing" textLength="77.6494" x="229.6" y="121.1826">-dni: String</text><text fill="#000000" font-family="sans-serif" font-size="14" lengthAdjust="spacing" textLength="119.8682" x="229.6" y="137.4795">-direccion: String</text><line style="stroke:#181818;stroke-width:0.5;" x1="224.6" x2="354.4682" y1="144.7813" y2="144.7813"/></g><!--class Due?o--><g class="entity" data-entity="Due.o" data-source-line="12" data-uid="ent0003" id="entity_Due.o"><rect fill="#F1F1F1" height="64.2969" rx="2.5" ry="2.5" style="stroke:#181818;stroke-width:0.5;" width="206.25" x="47.41" y="230.08"/><ellipse cx="123.4325" cy="246.08" fill="#ADD1B2" rx="11" ry="11" style="stroke:#181818;stroke-width:1;"/><path d="M126.4012,251.7206 Q125.8231,252.0175 125.1825,252.1581 Q124.5418,252.3144 123.8387,252.3144 Q121.3387,252.3144 120.0106,250.6738 Q118.6981,249.0175 118.6981,245.8925 Q118.6981,242.7675 120.0106,241.1113 Q121.3387,239.455 123.8387,239.455 Q124.5418,239.455 125.1825,239.6113 Q125.8387,239.7675 126.4012,240.0644 L126.4012,242.7831 Q125.7762,242.205 125.1825,241.9394 Q124.5887,241.6581 123.9637,241.6581 Q122.62,241.6581 121.9325,242.7363 Q121.245,243.7988 121.245,245.8925 Q121.245,247.9863 121.9325,249.0644 Q122.62,250.1269 123.9637,250.1269 Q124.5887,250.1269 125.1825,249.8613 Q125.7762,249.58 126.4012,249.0019 L126.4012,251.7206 Z " fill="#000000"/><text fill="#000000" font-family="sans-serif" font-size="14" lengthAdjust="spacing" textLength="45.7051" x="143.9325" y="250.9267">Due&#241;o</text><line style="stroke:#181818;stroke-width:0.5;" x1="48.41" x2="252.66" y1="262.08" y2="262.08"/><text fill="#000000" font-family="sans-serif" font-size="14" lengthAdjust="spacing" textLength="194.25" x="53.41" y="279.0751">+mascotas: List&lt;Mascota&gt;</text><line style="stroke:#181818;stroke-width:0.5;" x1="48.41" x2="252.66" y1="286.3769" y2="286.3769"/></g><!--class Veterinario--><g class="entity" data-entity="Veterinario" data-source-line="16" data-uid="ent0004" id="entity_Veterinario"><rect fill="#F1F1F1" height="96.8906" rx="2.5" ry="2.5" style="stroke:#181818;stroke-width:0.5;" width="283.1885" x="288.94" y="213.78"/><ellipse cx="387.4835" cy="229.78" fill="#ADD1B2" rx="11" ry="11" style="stroke:#181818;stroke-width:1;"/><path d="M390.4522,235.4206 Q389.8741,235.7175 389.2335,235.8581 Q388.5928,236.0144 387.8897,236.0144 Q385.3897,236.0144 384.0616,234.3737 Q382.7491,232.7175 382.7491,229.5925 Q382.7491,226.4675 384.0616,224.8112 Q385.3897,223.155 387.8897,223.155 Q388.5928,223.155 389.2335,223.3112 Q389.8897,223.4675 390.4522,223.7644 L390.4522,226.4831 Q389.8272,225.905 389.2335,225.6394 Q388.6397,225.3581 388.0147,225.3581 Q386.671,225.3581 385.9835,226.4362 Q385.296,227.4987 385.296,229.5925 Q385.296,231.6862 385.9835,232.7644 Q386.671,233.8269 388.0147,233.8269 Q388.6397,233.8269 389.2335,233.5612 Q389.8272,233.28 390.4522,232.7019 L390.4522,235.4206 Z " fill="#000000"/><text fill="#000000" font-family="sans-serif" font-size="14" lengthAdjust="spacing" textLength="77.6016" x="407.9835" y="234.6267">Veterinario</text><line style="stroke:#181818;stroke-width:0.5;" x1="289.94" x2="571.1285" y1="245.78" y2="245.78"/><text fill="#000000" font-family="sans-serif" font-size="14" lengthAdjust="spacing" textLength="122.3906" x="294.94" y="262.7751">-matricula: String</text><text fill="#000000" font-family="sans-serif" font-size="14" lengthAdjust="spacing" textLength="269.6094" x="294.94" y="279.072">-especialidades: List&lt;Especialidades&gt;</text><text fill="#000000" font-family="sans-serif" font-size="14" lengthAdjust="spacing" textLength="271.1885" x="294.94" y="295.3689">-servicioMedico: List&lt;ServicioMedico&gt;</text><line style="stroke:#181818;stroke-width:0.5;" x1="289.94" x2="571.1285" y1="302.6706" y2="302.6706"/></g><!--class Especialidades--><g class="entity" data-entity="Especialidades" data-source-line="25" data-uid="ent0007" id="entity_Especialidades"><rect fill="#F1F1F1" height="80.5938" rx="2.5" ry="2.5" style="stroke:#181818;stroke-width:0.5;" width="148.0488" x="329.51" y="436.56"/><ellipse cx="350.0018" cy="452.56" fill="#ADD1B2" rx="11" ry="11" style="stroke:#181818;stroke-width:1;"/><path d="M352.9706,458.2006 Q352.3925,458.4975 351.7518,458.6381 Q351.1112,458.7944 350.4081,458.7944 Q347.9081,458.7944 346.58,457.1538 Q345.2675,455.4975 345.2675,452.3725 Q345.2675,449.2475 346.58,447.5913 Q347.9081,445.935 350.4081,445.935 Q351.1112,445.935 351.7518,446.0913 Q352.4081,446.2475 352.9706,446.5444 L352.9706,449.2631 Q352.3456,448.685 351.7518,448.4194 Q351.1581,448.1381 350.5331,448.1381 Q349.1893,448.1381 348.5018,449.2163 Q347.8143,450.2788 347.8143,452.3725 Q347.8143,454.4663 348.5018,455.5444 Q349.1893,456.6069 350.5331,456.6069 Q351.1581,456.6069 351.7518,456.3413 Q352.3456,456.06 352.9706,455.4819 L352.9706,458.2006 Z " fill="#000000"/><text fill="#000000" font-family="sans-serif" font-size="14" lengthAdjust="spacing" textLength="103.8447" x="365.2223" y="457.4067">Especialidades</text><line style="stroke:#181818;stroke-width:0.5;" x1="330.51" x2="476.5588" y1="468.56" y2="468.56"/><text fill="#000000" font-family="sans-serif" font-size="14" lengthAdjust="spacing" textLength="110.332" x="335.51" y="485.5551">-nombre: String</text><text fill="#000000" font-family="sans-serif" font-size="14" lengthAdjust="spacing" textLength="136.0488" x="335.51" y="501.852">-descripcion: String</text><line style="stroke:#181818;stroke-width:0.5;" x1="330.51" x2="476.5588" y1="509.1538" y2="509.1538"/></g><!--class ServicioMedico--><g class="entity" data-entity="ServicioMedico" data-source-line="30" data-uid="ent0008" id="entity_ServicioMedico"><rect fill="#F1F1F1" height="162.0781" rx="2.5" ry="2.5" style="stroke:#181818;stroke-width:0.5;" width="215.1914" x="350.94" y="849.53"/><ellipse cx="401.6285" cy="865.53" fill="#ADD1B2" rx="11" ry="11" style="stroke:#181818;stroke-width:1;"/><path d="M404.5972,871.1706 Q404.0191,871.4675 403.3785,871.6081 Q402.7379,871.7644 402.0347,871.7644 Q399.5347,871.7644 398.2066,870.1238 Q396.8941,868.4675 396.8941,865.3425 Q396.8941,862.2175 398.2066,860.5613 Q399.5347,858.905 402.0347,858.905 Q402.7379,858.905 403.3785,859.0613 Q404.0347,859.2175 404.5972,859.5144 L404.5972,862.2331 Q403.9722,861.655 403.3785,861.3894 Q402.7847,861.1081 402.1597,861.1081 Q400.816,861.1081 400.1285,862.1863 Q399.441,863.2488 399.441,865.3425 Q399.441,867.4363 400.1285,868.5144 Q400.816,869.5769 402.1597,869.5769 Q402.7847,869.5769 403.3785,869.3113 Q403.9722,869.03 404.5972,868.4519 L404.5972,871.1706 Z " fill="#000000"/><text fill="#000000" font-family="sans-serif" font-size="14" lengthAdjust="spacing" textLength="105.3145" x="422.1285" y="870.3767">ServicioMedico</text><line style="stroke:#181818;stroke-width:0.5;" x1="351.94" x2="565.1314" y1="881.53" y2="881.53"/><text fill="#000000" font-family="sans-serif" font-size="14" lengthAdjust="spacing" textLength="86.3721" x="356.94" y="898.5251">-fecha: Date</text><text fill="#000000" font-family="sans-serif" font-size="14" lengthAdjust="spacing" textLength="136.0488" x="356.94" y="914.822">-descripcion: String</text><text fill="#000000" font-family="sans-serif" font-size="14" lengthAdjust="spacing" textLength="111.2549" x="356.94" y="931.1189">-detalles: String</text><text fill="#000000" font-family="sans-serif" font-size="14" lengthAdjust="spacing" textLength="168.1299" x="356.94" y="947.4157">-veterinario: Veterinario</text><text fill="#000000" font-family="sans-serif" font-size="14" lengthAdjust="spacing" textLength="132.3438" x="356.94" y="963.7126">-mascota: Mascota</text><text fill="#000000" font-family="sans-serif" font-size="14" lengthAdjust="spacing" textLength="99.5449" x="356.94" y="980.0095">-costo: double</text><text fill="#000000" font-family="sans-serif" font-size="14" lengthAdjust="spacing" textLength="203.1914" x="356.94" y="996.3064">-fechaFinalizacion: DateTime</text><line style="stroke:#181818;stroke-width:0.5;" x1="351.94" x2="565.1314" y1="1003.6081" y2="1003.6081"/></g><!--class Vacuna--><g class="entity" data-entity="Vacuna" data-source-line="40" data-uid="ent0009" id="entity_Vacuna"><rect fill="#F1F1F1" height="113.1875" rx="2.5" ry="2.5" style="stroke:#181818;stroke-width:0.5;" width="204.5752" x="48.25" y="651.2"/><ellipse cx="120.1982" cy="667.2" fill="#ADD1B2" rx="11" ry="11" style="stroke:#181818;stroke-width:1;"/><path d="M123.167,672.8406 Q122.5889,673.1375 121.9482,673.2781 Q121.3076,673.4344 120.6045,673.4344 Q118.1045,673.4344 116.7764,671.7937 Q115.4639,670.1375 115.4639,667.0125 Q115.4639,663.8875 116.7764,662.2312 Q118.1045,660.575 120.6045,660.575 Q121.3076,660.575 121.9482,660.7312 Q122.6045,660.8875 123.167,661.1844 L123.167,663.9031 Q122.542,663.325 121.9482,663.0594 Q121.3545,662.7781 120.7295,662.7781 Q119.3857,662.7781 118.6982,663.8562 Q118.0107,664.9187 118.0107,667.0125 Q118.0107,669.1062 118.6982,670.1844 Q119.3857,671.2469 120.7295,671.2469 Q121.3545,671.2469 121.9482,670.9812 Q122.542,670.7 123.167,670.1219 L123.167,672.8406 Z " fill="#000000"/><text fill="#000000" font-family="sans-serif" font-size="14" lengthAdjust="spacing" textLength="52.1787" x="140.6982" y="672.0467">Vacuna</text><line style="stroke:#181818;stroke-width:0.5;" x1="49.25" x2="251.8252" y1="683.2" y2="683.2"/><text fill="#000000" font-family="sans-serif" font-size="14" lengthAdjust="spacing" textLength="110.332" x="54.25" y="700.1951">-nombre: String</text><text fill="#000000" font-family="sans-serif" font-size="14" lengthAdjust="spacing" textLength="192.5752" x="54.25" y="716.492">-fechaAplicacion: DataTime</text><text fill="#000000" font-family="sans-serif" font-size="14" lengthAdjust="spacing" textLength="134.4561" x="54.25" y="732.7889">-descripcion: string</text><line style="stroke:#181818;stroke-width:0.5;" x1="49.25" x2="251.8252" y1="740.0906" y2="740.0906"/><text fill="#000000" font-family="sans-serif" font-size="14" lengthAdjust="spacing" textLength="174.6035" x="54.25" y="757.0857">+estaVencida(): Boolean</text></g><!--class Mascota--><g class="entity" data-entity="Mascota" data-source-line="50" data-uid="ent0012" id="entity_Mascota"><rect fill="#F1F1F1" height="178.375" rx="2.5" ry="2.5" style="stroke:#181818;stroke-width:0.5;" width="287.0781" x="7" y="387.67"/><ellipse cx="117.1475" cy="403.67" fill="#ADD1B2" rx="11" ry="11" style="stroke:#181818;stroke-width:1;"/><path d="M120.1162,409.3106 Q119.5381,409.6075 118.8975,409.7481 Q118.2568,409.9044 117.5537,409.9044 Q115.0537,409.9044 113.7256,408.2637 Q112.4131,406.6075 112.4131,403.4825 Q112.4131,400.3575 113.7256,398.7012 Q115.0537,397.045 117.5537,397.045 Q118.2568,397.045 118.8975,397.2012 Q119.5537,397.3575 120.1162,397.6544 L120.1162,400.3731 Q119.4912,399.795 118.8975,399.5294 Q118.3037,399.2481 117.6787,399.2481 Q116.335,399.2481 115.6475,400.3262 Q114.96,401.3887 114.96,403.4825 Q114.96,405.5762 115.6475,406.6544 Q116.335,407.7169 117.6787,407.7169 Q118.3037,407.7169 118.8975,407.4512 Q119.4912,407.17 120.1162,406.5919 L120.1162,409.3106 Z " fill="#000000"/><text fill="#000000" font-family="sans-serif" font-size="14" lengthAdjust="spacing" textLength="58.2832" x="137.6475" y="408.5167">Mascota</text><line style="stroke:#181818;stroke-width:0.5;" x1="8" x2="293.0781" y1="419.67" y2="419.67"/><text fill="#000000" font-family="sans-serif" font-size="14" lengthAdjust="spacing" textLength="110.332" x="13" y="436.6651">-nombre: String</text><text fill="#000000" font-family="sans-serif" font-size="14" lengthAdjust="spacing" textLength="67.4365" x="13" y="452.962">-edad: int</text><text fill="#000000" font-family="sans-serif" font-size="14" lengthAdjust="spacing" textLength="79.0303" x="13" y="469.2589">-peso: float</text><text fill="#000000" font-family="sans-serif" font-size="14" lengthAdjust="spacing" textLength="121.666" x="13" y="485.5557">-especie: Especie</text><text fill="#000000" font-family="sans-serif" font-size="14" lengthAdjust="spacing" textLength="275.0781" x="13" y="501.8526">-registroClinicos: List&lt;RegistroClinico&gt;</text><text fill="#000000" font-family="sans-serif" font-size="14" lengthAdjust="spacing" textLength="123.3545" x="13" y="518.1495">-due&#241;oDni: String</text><text fill="#000000" font-family="sans-serif" font-size="14" lengthAdjust="spacing" textLength="172.5117" x="13" y="534.4464">-vacunas: List&lt;Vacuna&gt;</text><line style="stroke:#181818;stroke-width:0.5;" x1="8" x2="293.0781" y1="541.7481" y2="541.7481"/><text fill="#000000" font-family="sans-serif" font-size="14" lengthAdjust="spacing" textLength="265.4258" x="13" y="558.7432">+getHistorial(): List&lt;RegistroClinico&gt;</text></g><!--class RegistroClinico--><g class="entity" data-entity="RegistroClinico" data-source-line="67" data-uid="ent0015" id="entity_RegistroClinico"><rect fill="#F1F1F1" height="129.4844" rx="2.5" ry="2.5" style="stroke:#181818;stroke-width:0.5;" width="180.1299" x="292.47" y="643.05"/><ellipse cx="326.9677" cy="659.05" fill="#ADD1B2" rx="11" ry="11" style="stroke:#181818;stroke-width:1;"/><path d="M329.9364,664.6906 Q329.3583,664.9875 328.7177,665.1281 Q328.077,665.2844 327.3739,665.2844 Q324.8739,665.2844 323.5458,663.6438 Q322.2333,661.9875 322.2333,658.8625 Q322.2333,655.7375 323.5458,654.0813 Q324.8739,652.425 327.3739,652.425 Q328.077,652.425 328.7177,652.5813 Q329.3739,652.7375 329.9364,653.0344 L329.9364,655.7531 Q329.3114,655.175 328.7177,654.9094 Q328.1239,654.6281 327.4989,654.6281 Q326.1552,654.6281 325.4677,655.7063 Q324.7802,656.7688 324.7802,658.8625 Q324.7802,660.9563 325.4677,662.0344 Q326.1552,663.0969 327.4989,663.0969 Q328.1239,663.0969 328.7177,662.8313 Q329.3114,662.55 329.9364,661.9719 L329.9364,664.6906 Z " fill="#000000"/><text fill="#000000" font-family="sans-serif" font-size="14" lengthAdjust="spacing" textLength="104.8018" x="345.3005" y="663.8967">RegistroClinico</text><line style="stroke:#181818;stroke-width:0.5;" x1="293.47" x2="471.5999" y1="675.05" y2="675.05"/><text fill="#000000" font-family="sans-serif" font-size="14" lengthAdjust="spacing" textLength="121.0645" x="298.47" y="692.0451">-fecha: DateTime</text><text fill="#000000" font-family="sans-serif" font-size="14" lengthAdjust="spacing" textLength="136.6162" x="298.47" y="708.342">-diagnostico: String</text><text fill="#000000" font-family="sans-serif" font-size="14" lengthAdjust="spacing" textLength="138.9609" x="298.47" y="724.6389">-tratamiento: String</text><text fill="#000000" font-family="sans-serif" font-size="14" lengthAdjust="spacing" textLength="168.1299" x="298.47" y="740.9357">-veterinario: Veterinario</text><text fill="#000000" font-family="sans-serif" font-size="14" lengthAdjust="spacing" textLength="132.3438" x="298.47" y="757.2326">-mascota: Mascota</text><line style="stroke:#181818;stroke-width:0.5;" x1="293.47" x2="471.5999" y1="764.5344" y2="764.5344"/></g><!--reverse link Persona to Due?o--><g class="link" data-entity-1="Persona" data-entity-2="Due.o" data-source-line="22" data-uid="lnk5" id="link_Persona_Due.o"><path codeLine="22" d="M222.8118,167.4569 C202.2718,194.1069 191.04,208.68 174.73,229.84" fill="none" id="Persona-backto-Due&#241;o" style="stroke:#181818;stroke-width:1;"/><polygon fill="none" points="233.8,153.2,218.0595,163.7941,227.5641,171.1196,233.8,153.2" style="stroke:#181818;stroke-width:1;"/></g><!--reverse link Persona to Veterinario--><g class="link" data-entity-1="Persona" data-entity-2="Veterinario" data-source-line="23" data-uid="lnk6" id="link_Persona_Veterinario"><path codeLine="23" d="M357.1653,167.3816 C373.0253,187.6716 378.78,195.03 393.21,213.49" fill="none" id="Persona-backto-Veterinario" style="stroke:#181818;stroke-width:1;"/><polygon fill="none" points="346.08,153.2,352.4381,171.0767,361.8924,163.6865,346.08,153.2" style="stroke:#181818;stroke-width:1;"/></g><!--link Veterinario to Especialidades--><g class="link" data-entity-1="Veterinario" data-entity-2="Especialidades" data-source-line="47" data-uid="lnk10" id="link_Veterinario_Especialidades"><path codeLine="47" d="M424.48,310.95 C419.69,348.66 413.847,394.7279 409.337,430.1879" fill="none" id="Veterinario-to-Especialidades" style="stroke:#181818;stroke-width:1;"/><polygon fill="#181818" points="408.58,436.14,413.6836,427.7166,409.2108,431.18,405.7475,426.7072,408.58,436.14" style="stroke:#181818;stroke-width:1;"/><text fill="#000000" font-family="sans-serif" font-size="13" lengthAdjust="spacing" textLength="32.9443" x="420.54" y="353.7369">tiene</text><text fill="#000000" font-family="sans-serif" font-size="13" lengthAdjust="spacing" textLength="8.271" x="415.1472" y="330.581">1</text><text fill="#000000" font-family="sans-serif" font-size="13" lengthAdjust="spacing" textLength="23.0356" x="384.5542" y="425.5329">0..*</text></g><!--link Veterinario to ServicioMedico--><g class="link" data-entity-1="Veterinario" data-entity-2="ServicioMedico" data-source-line="48" data-uid="lnk11" id="link_Veterinario_ServicioMedico"><path codeLine="48" d="M462.41,311 C475.42,333.3 488.94,360.8 495.54,387.67 C541.3,574.12 518.46,630.22 486.54,819.53 C484.92,829.15 484.1885,833.3167 481.9585,843.2167" fill="none" id="Veterinario-to-ServicioMedico" style="stroke:#181818;stroke-width:1;"/><polygon fill="#181818" points="480.64,849.07,486.5199,841.169,481.7387,844.1922,478.7155,839.411,480.64,849.07" style="stroke:#181818;stroke-width:1;"/><text fill="#000000" font-family="sans-serif" font-size="13" lengthAdjust="spacing" textLength="43.3228" x="520.54" y="609.1169">realiza</text><text fill="#000000" font-family="sans-serif" font-size="13" lengthAdjust="spacing" textLength="8.271" x="458.174" y="330.6377">1</text><text fill="#000000" font-family="sans-serif" font-size="13" lengthAdjust="spacing" textLength="23.0356" x="458.5528" y="838.4942">0..*</text></g><!--link Due?o to Mascota--><g class="link" data-entity-1="Due.o" data-entity-2="Mascota" data-source-line="62" data-uid="lnk13" id="link_Due.o_Mascota"><path codeLine="62" d="M150.54,294.6 C150.54,319.09 150.54,348.38 150.54,381.32" fill="none" id="Due&#241;o-to-Mascota" style="stroke:#181818;stroke-width:1;"/><polygon fill="#181818" points="150.54,387.32,154.54,378.32,150.54,382.32,146.54,378.32,150.54,387.32" style="stroke:#181818;stroke-width:1;"/><text fill="#000000" font-family="sans-serif" font-size="13" lengthAdjust="spacing" textLength="38.9746" x="151.54" y="353.7369">posee</text><text fill="#000000" font-family="sans-serif" font-size="13" lengthAdjust="spacing" textLength="8.271" x="141.7802" y="314.5297">1</text><text fill="#000000" font-family="sans-serif" font-size="13" lengthAdjust="spacing" textLength="23.0356" x="126.6251" y="376.6595">0..*</text></g><!--link Mascota to Vacuna--><g class="link" data-entity-1="Mascota" data-entity-2="Vacuna" data-source-line="63" data-uid="lnk14" id="link_Mascota_Vacuna"><path codeLine="63" d="M150.54,566.37 C150.54,594.81 150.54,619.5 150.54,644.91" fill="none" id="Mascota-to-Vacuna" style="stroke:#181818;stroke-width:1;"/><polygon fill="#181818" points="150.54,650.91,154.54,641.91,150.54,645.91,146.54,641.91,150.54,650.91" style="stroke:#181818;stroke-width:1;"/><text fill="#000000" font-family="sans-serif" font-size="13" lengthAdjust="spacing" textLength="32.9443" x="151.54" y="609.1169">tiene</text><text fill="#000000" font-family="sans-serif" font-size="13" lengthAdjust="spacing" textLength="8.271" x="142.2321" y="586.1729">1</text><text fill="#000000" font-family="sans-serif" font-size="13" lengthAdjust="spacing" textLength="23.0356" x="126.1409" y="640.1382">0..*</text></g><!--link Mascota to RegistroClinico--><g class="link" data-entity-1="Mascota" data-entity-2="RegistroClinico" data-source-line="75" data-uid="lnk16" id="link_Mascota_RegistroClinico"><path codeLine="75" d="M240.24,566.37 C265.99,591.79 289.3098,614.7851 313.2698,638.4351" fill="none" id="Mascota-to-RegistroClinico" style="stroke:#181818;stroke-width:1;"/><polygon fill="#181818" points="317.54,642.65,313.9447,633.4808,313.9815,639.1376,308.3248,639.1744,317.54,642.65" style="stroke:#181818;stroke-width:1;"/><text fill="#000000" font-family="sans-serif" font-size="13" lengthAdjust="spacing" textLength="32.9443" x="288.54" y="609.1169">tiene</text><text fill="#000000" font-family="sans-serif" font-size="13" lengthAdjust="spacing" textLength="8.271" x="239.0801" y="586.1729">1</text><text fill="#000000" font-family="sans-serif" font-size="13" lengthAdjust="spacing" textLength="23.0356" x="286.1753" y="631.7789">0..*</text></g><!--link RegistroClinico to ServicioMedico--><g class="link" data-entity-1="RegistroClinico" data-entity-2="ServicioMedico" data-source-line="76" data-uid="lnk17" id="link_RegistroClinico_ServicioMedico"><path codeLine="76" d="M404.62,772.95 C412.82,796.75 420.2678,818.3865 428.8978,843.4665" fill="none" id="RegistroClinico-to-ServicioMedico" style="stroke:#181818;stroke-width:1;"/><polygon fill="#181818" points="430.85,849.14,431.704,839.3282,429.2231,844.4121,424.1393,841.9312,430.85,849.14" style="stroke:#181818;stroke-width:1;"/><text fill="#000000" font-family="sans-serif" font-size="13" lengthAdjust="spacing" textLength="56.2847" x="421.54" y="815.5969">contiene</text><text fill="#000000" font-family="sans-serif" font-size="13" lengthAdjust="spacing" textLength="23.0356" x="382.7134" y="792.5166">0..*</text><text fill="#000000" font-family="sans-serif" font-size="13" lengthAdjust="spacing" textLength="23.0356" x="404.484" y="838.5703">0..*</text></g><!--SRC=[fLHDZzCm4BtdLrWz0LLMopLQLLee22HMGXJjVUfCkwDrxCYUzB30Z-8tyCUOnZPDJBSI8ZS_pyURDyy9ZsHxyD0fRI24MsPFsu7netPsGq-ehgiAje4zQ8uXwZFwu2oeRvMIhxQkstfir4OoxJvYs4BRAB8SZum6TywwUH3qQ0or1TfQAW3og3Kv-mV-KLMHoNh0NpzT8hBi86Z741hrYGBVtCNZwXH-ZunI03pbdBe3AQa70mN_qACc47RGOYxuRWQkOcH0Vo1XTuSjQPSYDpDmP915k_bUrudt79kGotpd3I_fBTVQKtzUfJcRN6Q7-a6cNWFZypNI1OCnHnccwE74jvcHJxgEuZSgRI6YsWMMwDODMuCJ6kybrT0JnDv7Ib-fmydYG0-N3JUMkUqDwLCH68lyFLiuvIqnCDoZrIBnYvUDUkESGR37pbEpB5ulL5slrEBwwkhLejnBevZGugMCOWMDyZWEd0TCAlt3a-enY98xuu2dbfMao2uDxd4lXlJkhI4hdRELlypXvELsjEMwV827KVsS6dSHCvPxv0y2EYzg7FKxNrpKhD9JBNJ9SpUgTm6nokSYBEq_2rrbsOfEPwmziG31teh_nbSw7Kz-RGoT56RtNmwNAP-XNzBCSvHu2h_a6_ahZxc_0G00]--></g></svg>